<svg width="32" height="32" viewBox="0 0 32 32" fill="none" xmlns="http://www.w3.org/2000/svg">
<path d="M16 0.25C7.30234 0.25 0.25 7.48516 0.25 16.4008C0.25 23.5375 4.76406 29.5844 11.0219 31.7219C11.1096 31.7409 11.1992 31.7504 11.2891 31.75C11.8727 31.75 12.0977 31.3211 12.0977 30.9484C12.0977 30.5617 12.0836 29.5492 12.0766 28.1992C11.5556 28.3214 11.0226 28.385 10.4875 28.3891C7.45703 28.3891 6.76797 26.0336 6.76797 26.0336C6.05078 24.1703 5.01719 23.6711 5.01719 23.6711C3.64609 22.7078 5.01016 22.6797 5.11562 22.6797H5.12266C6.70469 22.8203 7.53438 24.3531 7.53438 24.3531C8.32188 25.7312 9.37656 26.118 10.3187 26.118C10.9417 26.1055 11.5551 25.9618 12.1188 25.6961C12.2594 24.6555 12.6672 23.9453 13.1172 23.5375C9.62266 23.1297 5.94531 21.7445 5.94531 15.557C5.94531 13.7922 6.55703 12.3508 7.5625 11.2258C7.40078 10.818 6.85938 9.17266 7.71719 6.95078C7.83225 6.92325 7.95051 6.91142 8.06875 6.91563C8.63828 6.91563 9.925 7.13359 12.0484 8.61016C14.6286 7.88827 17.3574 7.88827 19.9375 8.61016C22.0609 7.13359 23.3477 6.91563 23.9172 6.91563C24.0354 6.91142 24.1537 6.92325 24.2688 6.95078C25.1266 9.17266 24.5852 10.818 24.4234 11.2258C25.4289 12.3578 26.0406 13.7992 26.0406 15.557C26.0406 21.7586 22.3563 23.1227 18.8477 23.5234C19.4102 24.0227 19.9164 25.007 19.9164 26.5117C19.9164 28.6703 19.8953 30.4141 19.8953 30.9414C19.8953 31.3211 20.1133 31.75 20.6969 31.75C20.7913 31.7504 20.8856 31.741 20.9781 31.7219C27.243 29.5844 31.75 23.5305 31.75 16.4008C31.75 7.48516 24.6977 0.25 16 0.25Z" fill="black"/>
</svg>
