<svg width="32" height="32" viewBox="0 0 32 32" fill="none" xmlns="http://www.w3.org/2000/svg">
<path d="M29.2307 0.25H2.94156C1.50508 0.25 0.25 1.28359 0.25 2.7032V29.0507C0.25 30.478 1.50508 31.75 2.94156 31.75H29.223C30.6672 31.75 31.75 30.4696 31.75 29.0507V2.7032C31.7584 1.28359 30.6672 0.25 29.2307 0.25ZM10.0143 26.5068H5.50164V12.4759H10.0143V26.5068ZM7.91406 10.3427H7.88172C6.4375 10.3427 5.50234 9.26758 5.50234 7.9218C5.50234 6.55141 6.46211 5.50164 7.93867 5.50164C9.41523 5.50164 10.3188 6.54367 10.3511 7.9218C10.3504 9.26758 9.41523 10.3427 7.91406 10.3427ZM26.5068 26.5068H21.9941V18.835C21.9941 16.997 21.3374 15.7413 19.7048 15.7413C18.4574 15.7413 17.7191 16.585 17.3908 17.407C17.2677 17.7023 17.2347 18.1045 17.2347 18.5151V26.5068H12.722V12.4759H17.2347V14.4285C17.8914 13.4934 18.9173 12.1476 21.3044 12.1476C24.2666 12.1476 26.5075 14.1002 26.5075 18.3098L26.5068 26.5068Z" fill="black"/>
</svg>
